#!OML:ASF \\Waltz\H\Terrain\Patient Classification 1\Animal2\Wednesday\Animal2.ASF
:FULLY-SPECIFIED
:DEGREES
2491
root 10.836 17.1778 -3.54901 5.61352 8.98741 0.0683795
lowerback 4.53702 -1.15913 4.46131
upperback -6.32824 -0.794873 4.23401
thorax -9.27116 -0.513829 2.10354
lowerneck 14.0608 13.1718 20.4868
upperneck 8.3676 20.2427 -2.66578
head 2.69414 10.6835 -3.73581
rclavicle 9.93923e-016 -3.49861e-014
rhumerus -34.4691 -25.0627 -29.3858
rradius 142.592
rwrist 5.98163
rhand -27.3615 16.7587
rfingers 7.12502
rthumb -0.769256 -13.2197
lclavicle 9.93923e-016 -3.49861e-014
lhumerus -49.2709 32.3687 4.31415
lradius 143.341
lwrist 2.41667
lhand -42.4682 37.7796
lfingers 7.12502
lthumb -15.3461 67.1901
rfemur -20.6581 -3.25473 13.6004
rtibia 44.2017
rfoot -27.382 -3.20465
rtoes 17.6645
lfemur -23.8546 -0.400963 -10.7505
ltibia 41.5157
lfoot -22.7765 -6.25801
ltoes -28.2972
2492
root 10.8282 17.1921 -3.54034 5.63706 8.76315 -0.0295858
lowerback 4.54966 -1.34149 4.48844
upperback -6.31668 -1.0369 4.25539
thorax -9.26617 -0.633151 2.14194
lowerneck 14.103 12.6305 20.1159
upperneck 7.97709 19.5567 -3.67442
head 2.54786 10.3234 -4.05119
rclavicle -1.90833e-014 6.20208e-014
rhumerus -34.2028 -24.8619 -29.9372
rradius 142.601
rwrist 6.00856
rhand -27.9207 16.9956
rfingers 7.12502
rthumb -1.30935 -12.9801
lclavicle -1.90833e-014 6.20208e-014
lhumerus -50.0947 32.6201 3.88301
lradius 143.598
lwrist 2.94646
lhand -43.057 37.2821
lfingers 7.12502
lthumb -15.9133 66.6483
rfemur -20.6986 -2.91402 13.7266
rtibia 44.162
rfoot -27.3148 -3.27106
rtoes 17.5645
lfemur -23.7187 -0.0693603 -10.6249
ltibia 41.3542
lfoot -22.8038 -6.26991
ltoes -28.5087
2493
root 10.8193 17.2045 -3.53361 5.75761 8.52043 -0.100446
lowerback 4.53335 -1.46058 4.56842
upperback -6.39745 -1.19567 4.15248
thorax -9.34957 -0.721667 2.01074
lowerneck 14.2694 11.7971 20.0872
upperneck 7.47578 18.5649 -5.00351
head 2.36712 9.82241 -4.53062
rclavicle -1.16289e-014 -6.36111e-015
rhumerus -34.3995 -24.5382 -30.5
rradius 142.602
rwrist 6.313
rhand -28.8106 17.5446
rfingers 7.12502
rthumb -2.16877 -12.4242
lclavicle -1.16289e-014 -6.36111e-015
lhumerus -50.5114 32.5041 3.78887
lradius 143.763
lwrist 3.2558
lhand -43.8611 37.2143
lfingers 7.12502
lthumb -16.6875 66.517
rfemur -20.8476 -2.54901 13.817
rtibia 44.1058
rfoot -27.2108 -3.27735
rtoes 17.1262
lfemur -23.6649 0.199522 -10.5247
ltibia 41.157
lfoot -22.7394 -6.20551
ltoes -28.7956
2494
root 10.8076 17.2135 -3.52678 5.99114 8.31998 -0.207097
lowerback 4.29965 -1.53625 4.71271
upperback -6.44589 -1.32121 3.9026
thorax -9.27331 -0.803952 1.67297
lowerneck 13.9661 10.9882 20.1529
upperneck 7.36722 17.4976 -5.98296
head 2.33216 9.29555 -4.87527
rclavicle -4.47266e-015 1.90833e-014
rhumerus -34.9759 -24.3921 -31.1849
rradius 142.688
rwrist 6.71208
rhand -29.5286 17.922
rfingers 7.12502
rthumb -2.86217 -12.0386
lclavicle -4.47266e-015 1.90833e-014
lhumerus -50.3167 32.4325 4.12928
lradius 143.974
lwrist 3.43558
lhand -44.3673 37.6059
lfingers 7.12502
lthumb -17.1747 66.8669
rfemur -21.0933 -2.16671 13.9708
rtibia 44.0572
rfoot -27.0156 -3.55562
rtoes 15.8035
lfemur -23.7705 0.483169 -10.3855
ltibia 40.9488
lfoot -22.6387 -6.13945
ltoes -28.6943
2495
root 10.7919 17.2225 -3.51886 6.22127 8.1467 -0.113103
lowerback 4.03315 -1.74294 4.54022
upperback -6.42887 -1.65253 3.71155
thorax -9.09643 -0.961642 1.59464
lowerneck 13.3677 10.3549 19.8924
upperneck 7.59614 16.5683 -6.99316
head 2.42593 8.83808 -5.15379
rclavicle 2.38542e-014 -4.77083e-014
rhumerus -35.169 -24.2264 -31.9911
rradius 142.775
rwrist 6.77073
rhand -29.6559 18.0531
rfingers 7.12502
rthumb -2.98518 -11.9058
lclavicle 2.38542e-014 -4.77083e-014
lhumerus -50.4885 32.5079 4.40664
lradius 144.28
lwrist 3.70996
lhand -44.9633 37.3672
lfingers 7.12502
lthumb -17.7484 66.5772
rfemur -21.314 -1.73694 13.9364
rtibia 44.0232
rfoot -26.8423 -4.07829
rtoes 14.6189
lfemur -23.849 0.735574 -10.4708
ltibia 40.7298
lfoot -22.6053 -5.87149
ltoes -29.5963
2496
root 10.7771 17.2321 -3.51646 6.42087 7.85157 0.021383
lowerback 3.91347 -2.01301 4.28501
upperback -6.36958 -2.05756 3.63267
thorax -8.95442 -1.14548 1.69297
lowerneck 12.6637 9.76005 19.2692
upperneck 7.76732 15.6428 -8.1608
head 2.49123 8.36398 -5.43284
rclavicle -2.93207e-014 -6.36111e-015
rhumerus -34.9586 -23.935 -32.9668
rradius 142.771
rwrist 6.70599
rhand -29.9172 18.3481
rfingers 7.12502
rthumb -3.23753 -11.6071
lclavicle -2.93207e-014 -6.36111e-015
lhumerus -51.1261 32.6073 4.69469
lradius 144.604
lwrist 3.81327
lhand -45.6134 36.7812
lfingers 7.12502
lthumb -18.3738 65.9334
rfemur -21.5699 -1.16162 13.827
rtibia 43.9964
rfoot -26.6764 -4.24049
rtoes 14.8952
lfemur -23.8149 1.0732 -10.6038
ltibia 40.4795
lfoot -22.447 -5.98704
ltoes -29.2965
2497
root 10.7646 17.2419 -3.51688 6.51516 7.51605 0.0518434
lowerback 3.90432 -2.23927 4.16177
upperback -6.27479 -2.38761 3.52885
thorax -8.84453 -1.30257 1.68513
lowerneck 11.8779 9.02929 18.613
upperneck 7.95821 14.5261 -9.25696
head 2.5333 7.78445 -5.69283
rclavicle -7.7526e-015 -2.38542e-014
rhumerus -34.9302 -23.5923 -34.0443
rradius 142.744
rwrist 6.92467
rhand -30.8072 18.6192
rfingers 7.12502
rthumb -4.09697 -11.3211
lclavicle -7.7526e-015 -2.38542e-014
lhumerus -51.3939 32.7494 5.48606
lradius 144.873
lwrist 3.8131
lhand -46.0375 36.4785
lfingers 7.12502
lthumb -18.7817 65.5917
rfemur -21.7401 -0.595624 13.7936
rtibia 43.9596
rfoot -26.5308 -4.24917
rtoes 14.6081
lfemur -23.6354 1.402 -10.6244
ltibia 40.186
lfoot -22.3261 -6.10118
ltoes -28.8136
2498
root 10.7487 17.2531 -3.51316 6.56132 7.26542 0.162241
lowerback 3.86496 -2.46183 3.90191
upperback -6.15121 -2.7321 3.35428
thorax -8.68072 -1.46062 1.67609
lowerneck 10.762 8.19218 18.2836
upperneck 8.56136 13.2974 -10.6315
head 2.76622 7.15118 -6.06965
rclavicle -7.15625e-015 -1.11319e-014
rhumerus -35.2187 -23.2139 -34.9968
rradius 142.759
rwrist 7.30786
rhand -31.7146 18.5974
rfingers 7.12502
rthumb -4.97312 -11.3243
lclavicle -7.15625e-015 -1.11319e-014
lhumerus -51.121 32.7365 6.90888
lradius 144.982
lwrist 3.71954
lhand -46.6294 36.0968
lfingers 7.12502
lthumb -19.351 65.1539
rfemur -21.8618 -0.0728268 13.676
rtibia 43.9352
rfoot -26.365 -4.31677
rtoes 14.1601
lfemur -23.4094 1.59044 -10.7217
ltibia 39.8584
lfoot -22.243 -5.92331
ltoes -29.8921
2499
root 10.7302 17.2683 -3.51053 6.70556 7.06038 0.255396
lowerback 3.74678 -2.71548 3.6138
upperback -6.05327 -3.12217 3.18972
thorax -8.49614 -1.63969 1.69442
lowerneck 9.51996 7.30546 18.056
upperneck 9.34062 12.0338 -12.1532
head 3.06524 6.48577 -6.51779
rclavicle -3.37437e-014 3.18055e-014
rhumerus -35.6668 -22.8219 -35.8809
rradius 142.8
rwrist 7.51357
rhand -32.1838 19.0431
rfingers 7.12502
rthumb -5.42624 -10.8674
lclavicle -3.37437e-014 3.18055e-014
lhumerus -50.8046 32.5023 8.51639
lradius 144.995
lwrist 3.55645
lhand -47.4508 35.3131
lfingers 7.12502
lthumb -20.1406 64.2891
rfemur -22.1187 0.460571 13.5814
rtibia 43.946
rfoot -26.1754 -4.241
rtoes 14.8387
lfemur -23.3212 1.72166 -10.7872
ltibia 39.5105
lfoot -22.0132 -5.78829
ltoes -30.4222
2500
root 10.7141 17.2815 -3.51225 6.76198 6.83745 0.285186
lowerback 3.74985 -2.99097 3.46629
upperback -5.93032 -3.52479 2.99846
thorax -8.36641 -1.8348 1.61332
lowerneck 8.23563 6.42575 17.682
upperneck 10.1187 10.7758 -13.5461
head 3.33963 5.79847 -6.91901
rclavicle 7.35503e-015 -1.35174e-014
rhumerus -36.1642 -22.4224 -36.893
rradius 142.788
rwrist 7.71148
rhand -32.8409 19.9279
rfingers 7.12502
rthumb -6.06061 -9.96544
lclavicle 7.35503e-015 -1.35174e-014
lhumerus -50.4766 32.1178 10.2284
lradius 145.12
lwrist 3.51115
lhand -48.6038 34.7647
lfingers 7.12502
lthumb -21.2485 63.62
rfemur -22.2624 0.900873 13.5545
rtibia 43.9977
rfoot -26.037 -4.10864
rtoes 15.5679
lfemur -23.1234 1.82658 -10.7848
ltibia 39.1324
lfoot -21.8254 -5.60912
ltoes -30.0655
2501
root 10.6988 17.2917 -3.51742 6.84183 6.53701 0.40781
lowerback 3.76106 -3.27009 3.2372
upperback -5.82005 -3.93894 2.78187
thorax -8.25199 -2.03178 1.55288
lowerneck 7.02204 5.6093 17.2028
upperneck 10.7816 9.62896 -14.9638
head 3.56929 5.1454 -7.32542
rclavicle -9.61621e-014 4.05521e-014
rhumerus -36.5825 -21.9677 -37.946
rradius 142.736
rwrist 8.15574
rhand -33.4531 20.2724
rfingers 7.12502
rthumb -6.65167 -9.60311
lclavicle -9.61621e-014 4.05521e-014
lhumerus -50.0562 31.5496 12.2308
lradius 145.193
lwrist 3.36904
lhand -49.9689 34.1757
lfingers 7.12502
lthumb -22.5592 62.8776
rfemur -22.4471 1.30237 13.3991
rtibia 44.0674
rfoot -25.869 -3.83212
rtoes 16.8637
lfemur -22.9402 2.01353 -10.9103
ltibia 38.7627
lfoot -21.7638 -5.43971
ltoes -30.189
2502
root 10.6807 17.3068 -3.52156 7.04016 6.23201 0.575896
lowerback 3.65313 -3.57902 2.8008
upperback -5.75908 -4.40452 2.67956
thorax -8.09554 -2.23869 1.72555
lowerneck 5.99045 4.76669 16.5836
upperneck 11.2916 8.49083 -16.5072
head 3.7115 4.47902 -7.76999
rclavicle -2.90723e-014 -4.13472e-014
rhumerus -36.9564 -21.471 -38.7762
rradius 142.803
rwrist 8.59857
rhand -33.437 20.1342
rfingers 7.12502
rthumb -6.63614 -9.74185
lclavicle -2.90723e-014 -4.13472e-014
lhumerus -49.7613 30.9777 14.4331
lradius 145.102
lwrist 2.99791
lhand -50.973 33.0506
lfingers 7.12502
lthumb -23.5227 61.6323
rfemur -22.7717 1.67214 13.1861
rtibia 44.1169
rfoot -25.7334 -3.27378
rtoes 19.1771
lfemur -22.905 2.26671 -11.0777
ltibia 38.4164
lfoot -21.583 -5.49092
ltoes -30.1831
2503
root 10.6583 17.3196 -3.52154 7.06496 5.98536 0.533218
lowerback 3.60377 -3.94475 2.52201
upperback -5.61615 -4.92546 2.67359
thorax -7.88581 -2.47963 1.91532
lowerneck 4.62634 3.9133 15.7174
upperneck 12.1068 7.3315 -17.9018
head 3.97325 3.76159 -8.12739
rclavicle -3.47873e-014 -9.54166e-015
rhumerus -37.2665 -21.0135 -39.5106
rradius 142.857
rwrist 8.85794
rhand -33.0859 20.3956
rfingers 7.12502
rthumb -6.29717 -9.49083
lclavicle -3.47873e-014 -9.54166e-015
lhumerus -49.3859 30.453 16.911
lradius 144.935
lwrist 2.30134
lhand -51.6691 31.8441
lfingers 7.12502
lthumb -24.1902 60.3386
rfemur -22.8662 2.00193 13.2778
rtibia 44.1338
rfoot -25.6883 -3.1083
rtoes 19.8391
lfemur -22.6915 2.58853 -10.9661
ltibia 38.0581
lfoot -21.3104 -5.52666
ltoes -30.0001
2504
root 10.6346 17.325 -3.52129 6.97082 5.6844 0.494937
lowerback 3.64891 -4.33924 2.33696
upperback -5.45647 -5.48175 2.54704
thorax -7.72974 -2.74761 1.93627
lowerneck 3.21552 3.1501 14.8013
upperneck 13.0781 6.32043 -18.9898
head 4.30723 3.09955 -8.37954
rclavicle -6.55989e-014 -6.36111e-015
rhumerus -37.6553 -20.4468 -40.5614
rradius 142.78
rwrist 9.21692
rhand -33.0531 20.8632
rfingers 7.12502
rthumb -6.26549 -9.0241
lclavicle -6.55989e-014 -6.36111e-015
lhumerus -48.839 29.6785 19.4681
lradius 144.646
lwrist 1.41
lhand -52.3187 30.5007
lfingers 7.12502
lthumb -24.813 58.9108
rfemur -22.8405 2.32839 13.3973
rtibia 44.134
rfoot -25.5444 -3.4756
rtoes 18.3173
lfemur -22.315 2.89846 -10.8496
ltibia 37.6783
lfoot -21.2667 -5.2906
ltoes -30.5335
